<svg width="88" height="240" viewBox="0 0 88 240" fill="none" xmlns="http://www.w3.org/2000/svg">
<path d="M0 0H88V220C88 231.046 79.0457 240 68 240H0V0Z" fill="#053B50"/>
<line x1="28.5" y1="14.0033" x2="27.5" y2="164.003" stroke="white"/>
<line x1="50.5" y1="43.0033" x2="49.5" y2="193.003" stroke="white"/>
<line x1="72.5" y1="66.0033" x2="71.5" y2="216.003" stroke="white"/>
<g clip-path="url(#clip0_222_15)">
<path d="M28.3149 213.626C27.8495 213.163 27.48 212.612 27.2276 212.005C26.9753 211.398 26.8449 210.748 26.8441 210.091L26.8441 198.537C26.8441 198.27 26.9499 198.015 27.1382 197.827C27.3265 197.638 27.5819 197.533 27.8482 197.533C28.1145 197.533 28.3699 197.638 28.5582 197.827C28.7465 198.015 28.8523 198.27 28.8523 198.537L28.8523 210.091C28.8528 210.886 29.1688 211.648 29.731 212.21C30.2931 212.772 31.0554 213.088 31.8504 213.089L43.4046 213.089C43.6709 213.089 43.9263 213.195 44.1146 213.383C44.3029 213.571 44.4086 213.827 44.4086 214.093C44.4086 214.359 44.3029 214.615 44.1146 214.803C43.9263 214.991 43.6709 215.097 43.4046 215.097L31.8504 215.097C31.1934 215.096 30.5429 214.966 29.9363 214.714C29.3296 214.461 28.7787 214.092 28.3149 213.626V213.626Z" fill="white"/>
</g>
<g clip-path="url(#clip1_222_15)">
<path d="M70.6262 16.3148C71.0917 16.7785 71.4611 17.3295 71.7135 17.9362C71.9659 18.5428 72.0962 19.1933 72.097 19.8503L72.097 31.4044C72.097 31.6707 71.9912 31.9261 71.8029 32.1144C71.6146 32.3027 71.3592 32.4085 71.0929 32.4085C70.8266 32.4085 70.5712 32.3027 70.3829 32.1144C70.1946 31.9261 70.0888 31.6707 70.0888 31.4044L70.0888 19.8503C70.0883 19.0553 69.7723 18.293 69.2102 17.7309C68.648 17.1687 67.8857 16.8527 67.0907 16.8522L55.5366 16.8522C55.2703 16.8522 55.0149 16.7464 54.8266 16.5581C54.6383 16.3698 54.5325 16.1144 54.5325 15.8481C54.5325 15.5818 54.6383 15.3264 54.8266 15.1381C55.0149 14.9498 55.2703 14.844 55.5366 14.844L67.0907 14.844C67.7478 14.8448 68.3982 14.9751 69.0048 15.2275C69.6115 15.4799 70.1625 15.8493 70.6262 16.3148V16.3148Z" fill="white"/>
</g>
<defs>
<clipPath id="clip0_222_15">
<rect width="24" height="24" fill="white" transform="translate(31.9706 193) rotate(45)"/>
</clipPath>
<clipPath id="clip1_222_15">
<rect width="24" height="24" fill="white" transform="translate(66.9706 36.9411) rotate(-135)"/>
</clipPath>
</defs>
</svg>
