<?xml version="1.0" ?><svg viewBox="0 0 24 24" xmlns="http://www.w3.org/2000/svg"><defs><style>.cls-1{fill:none;}</style></defs><g id="Home"><path class="cls-1" d="M13,14H11a1,1,0,0,0-1,1v5h4V15A1,1,0,0,0,13,14Z"/><path class="cls-1" d="M12.71,4.12a1,1,0,0,0-1.42,0l-7,7a1,1,0,0,0-.29.71V19a1,1,0,0,0,1,1H8V15a3,3,0,0,1,3-3h2a3,3,0,0,1,3,3v5h3a1,1,0,0,0,1-1V11.83a1,1,0,0,0-.29-.71Z"/><path d="M21.12,9.71l-7-7a3.06,3.06,0,0,0-4.24,0l-7,7A3,3,0,0,0,2,11.83V19a3,3,0,0,0,3,3H19a3,3,0,0,0,3-3V11.83A3,3,0,0,0,21.12,9.71ZM10,20V15a1,1,0,0,1,1-1h2a1,1,0,0,1,1,1v5Zm10-1a1,1,0,0,1-1,1H16V15a3,3,0,0,0-3-3H11a3,3,0,0,0-3,3v5H5a1,1,0,0,1-1-1V11.83a1,1,0,0,1,.29-.71l7-7a1,1,0,0,1,1.42,0l7,7a1,1,0,0,1,.29.71Z"/></g></svg>