<svg width="600" height="400" viewBox="0 0 600 400" fill="none" xmlns="http://www.w3.org/2000/svg">
<rect x="7.5" y="7.5" width="585" height="385" fill="white" stroke="#053B50" stroke-width="15"/>
<path d="M432.212 0H525.664V220.602C525.664 231.647 516.709 240.602 505.664 240.602H432.212V0Z" fill="#053B50"/>
<line y1="-0.5" x2="150.38" y2="-0.5" transform="matrix(-0.00706177 0.999975 -0.99998 -0.00629339 461.947 14.0351)" stroke="white"/>
<line y1="-0.5" x2="150.38" y2="-0.5" transform="matrix(-0.00706177 0.999975 -0.99998 -0.00629339 485.31 43.1078)" stroke="white"/>
<line y1="-0.5" x2="150.38" y2="-0.5" transform="matrix(-0.00706177 0.999975 -0.99998 -0.00629339 508.673 66.1654)" stroke="white"/>
<g clip-path="url(#clip0_226_25)">
<path d="M462.281 214.162C461.787 213.697 461.395 213.144 461.127 212.536C460.859 211.928 460.72 211.276 460.719 210.617L460.719 199.034C460.719 198.767 460.832 198.511 461.032 198.322C461.232 198.134 461.503 198.028 461.786 198.028C462.069 198.028 462.34 198.134 462.54 198.322C462.74 198.511 462.852 198.767 462.852 199.034L462.852 210.617C462.853 211.414 463.188 212.179 463.785 212.742C464.382 213.306 465.192 213.623 466.036 213.623L478.306 213.623C478.589 213.623 478.86 213.729 479.06 213.918C479.26 214.107 479.372 214.363 479.372 214.63C479.372 214.897 479.26 215.153 479.06 215.341C478.86 215.53 478.589 215.636 478.306 215.636L466.036 215.636C465.338 215.635 464.647 215.505 464.003 215.252C463.359 214.999 462.774 214.628 462.281 214.162V214.162Z" fill="white"/>
</g>
<g clip-path="url(#clip1_226_25)">
<path d="M507.214 16.3556C507.708 16.8206 508.1 17.3729 508.368 17.9811C508.636 18.5893 508.775 19.2413 508.776 19.9L508.776 31.4831C508.776 31.7501 508.663 32.0061 508.463 32.1949C508.263 32.3837 507.992 32.4897 507.709 32.4897C507.426 32.4897 507.155 32.3837 506.955 32.1949C506.755 32.0061 506.643 31.7501 506.643 31.4831L506.643 19.9C506.642 19.103 506.307 18.3388 505.71 17.7753C505.113 17.2117 504.303 16.8949 503.459 16.8944L491.189 16.8944C490.906 16.8944 490.635 16.7883 490.435 16.5996C490.235 16.4108 490.123 16.1548 490.123 15.8878C490.123 15.6208 490.235 15.3648 490.435 15.176C490.635 14.9872 490.906 14.8812 491.189 14.8812L503.459 14.8812C504.157 14.882 504.848 15.0127 505.492 15.2657C506.136 15.5187 506.721 15.889 507.214 16.3556V16.3556Z" fill="white"/>
</g>
<defs>
<clipPath id="clip0_226_25">
<rect width="24.7837" height="24.7837" fill="white" transform="matrix(0.727165 0.686463 -0.727165 0.686463 466.163 193.484)"/>
</clipPath>
<clipPath id="clip1_226_25">
<rect width="24.7837" height="24.7837" fill="white" transform="matrix(-0.727165 -0.686463 0.727165 -0.686463 503.332 37.0337)"/>
</clipPath>
</defs>
</svg>
